<?xml version="1.0" standalone="no"?><!DOCTYPE svg PUBLIC "-//W3C//DTD SVG 1.1//EN" "http://www.w3.org/Graphics/SVG/1.1/DTD/svg11.dtd"><svg t="1683885553067" class="icon" viewBox="0 0 1024 1024" version="1.1" xmlns="http://www.w3.org/2000/svg" p-id="2594" xmlns:xlink="http://www.w3.org/1999/xlink" width="200" height="200"><path d="M339.5999999 32.00000001h344.80000003C792.00000004 32.00000001 832.00000003 43.20000002 869.19999995 64.00000003A218.00000015 218.00000015 0 0 1 959.99999997 154.80000005c20.80000001 37.20000002 31.99999996 77.20000012 32.00000002 184.80000002v344.79999986c0 106.79999999-11.19999999 145.60000002-32.00000002 184.80000019A218.00000015 218.00000015 0 0 1 869.19999995 959.99999997c-40.00000007 20.80000001-77.99999993 31.99999996-184.80000002 32.00000002h-344.79999986C231.99999996 991.99999999 191.99999997 980.79999998 154.80000005 959.99999997A218.00000015 218.00000015 0 0 1 64.00000003 869.19999995C43.20000002 832.00000003 32.00000001 792.00000004 32.00000001 684.4000001v-344.80000003C32.00000001 231.99999996 43.20000002 191.99999997 64.00000003 154.80000005A218.00000015 218.00000015 0 0 1 154.80000005 64.00000003C191.99999997 43.20000002 231.99999996 32.00000001 339.5999999 32.00000001z" fill="#1296db" p-id="2595" data-spm-anchor-id="a313x.7781069.0.i9" class="selected"></path><path d="M654 155.59999994a167.20000015 167.20000015 0 0 1 62.79999998 30.39999995 46.8 46.8 0 0 1 15.99999991 19.60000013 40.00000007 40.00000007 0 0 1-3.60000002 37.20000001 40.00000007 40.00000007 0 0 1-54.79999986 12.39999998c-4.4-2.80000004-7.59999987-6.80000004-11.99999995-9.19999997a72.39999995 72.39999995 0 0 0-40.00000003-13.20000004 40.00000007 40.00000007 0 0 0-25.60000002 13.20000004 28.4 28.4 0 0 0-7.60000007 25.60000008l14.80000003 55.59999989a214.40000001 214.40000001 0 0 1 100.80000003 29.60000001 287.6000001 287.6000001 0 0 1 77.19999999 69.19999997 240 240 0 0 1 40.00000018 79.99999984A265.99999996 265.99999996 0 0 1 832.00000003 598.40000004a293.60000011 293.60000011 0 0 1-16.00000002 76.79999997 300.79999999 300.79999999 0 0 1-120.00000002 147.20000002 320.00000003 320.00000003 0 0 1-132.39999988 46.39999991 331.19999998 331.19999998 0 0 1-97.20000009 0 320.00000003 320.00000003 0 0 1-175.19999991-92.80000007 344.00000005 344.00000005 0 0 1-90.80000011-317.19999999 337.60000001 337.60000001 0 0 1 202.40000001-239.99999975 53.59999988 53.59999988 0 0 1 44.79999999 2.39999987A40.00000007 40.00000007 0 0 1 464.00000001 258.80000011a40.00000007 40.00000007 0 0 1-25.60000002 32.79999983 257.59999994 257.59999994 0 0 0-163.59999999 206.40000005 262.40000011 262.40000011 0 0 0 14.39999999 127.19999998 258.4 258.4 0 0 0 119.99999999 138.39999999A234.00000003 234.00000003 0 0 0 518.4 789.99999996a272.80000013 272.80000013 0 0 0 91.60000007-16.40000009 217.19999987 217.19999987 0 0 0 118.39999986-101.59999982 177.60000011 177.60000011 0 0 0 15.20000008-35.99999989 199.99999989 199.99999989 0 0 0 0-111.20000017 168.79999985 168.79999985 0 0 0-50.79999991-77.99999989A222.40000002 222.40000002 0 0 0 659.20000018 422.40000001a128.39999999 128.39999999 0 0 0-33.6000002-12.80000002c7.99999999 31.99999996 16.8 63.99999987 25.20000003 96.40000016l3.99999998 23.19999967a136.39999998 136.39999998 0 0 1-109.99999999 138.40000019 130.79999977 130.79999977 0 0 1-96.00000001-17.99999999 144.4 144.4 0 0 1-56.8-73.59999999 174.79999995 174.79999995 0 0 1-9.59999986-52.40000013 180.8000001 180.8000001 0 0 1 30.40000004-110.39999989 199.99999989 199.99999989 0 0 1 111.19999982-76.8l-9.60000004-37.20000004a110.39999998 110.39999998 0 0 1 6.00000018-80.0000001 115.59999997 115.59999997 0 0 1 28.79999989-36.39999988A117.59999999 117.59999999 0 0 1 591.99999998 156.39999994a120.00000001 120.00000001 0 0 1 62.00000002-0.79999983z" fill="#ffffff" p-id="2596"></path><path d="M488.79999995 447.6a93.60000012 93.60000012 0 0 0-23.59999995 44.80000004 120.00000001 120.00000001 0 0 0 0 46.39999994 69.2 69.2 0 0 0 26.4 43.19999988 50.80000013 50.80000013 0 0 0 40.00000001 7.60000029A55.99999999 55.99999999 0 0 0 576.79999989 537.60000014a144 144 0 0 0-3.59999987-18.40000021L545.60000004 414.79999999a127.60000001 127.60000001 0 0 0-56.80000009 32.80000001z" fill="#1296db" p-id="2597" data-spm-anchor-id="a313x.7781069.0.i10" class="selected"></path></svg>